<svg xmlns="http://www.w3.org/2000/svg" xmlns:xlink="http://www.w3.org/1999/xlink" width="595" height="187"><style><![CDATA[.B{stroke:#fff}.C{stroke-linejoin:round}.D{stroke-linecap:round}.E{fill:#0064D2}.F{opacity:.6}.G{opacity:.2}.H{fill-rule:nonzero}.I{fill:#FEDD00}]]></style><defs><path id="A" d="M0 .085h6.366v8.528H0z"/><path id="B" d="M.044.008h3.062V3.16H.044z"/><path id="C" d="M198.385 154.204l-4.64-2.925 4.64 2.925zm0-2.75l4.537-2.86-4.537 2.86zm0-2.182l-2.566-1.618 2.566 1.618zm-1.914 7.56c-2.73-.457-4.902-1.964-5.442-4.037-1.32-4.086-1.31-6.298-.32-7.98l.512-.8c.45-.677.847-1.3.895-2.158.088-1.553 1.363-2.78 2.46-3.596 1.34-1 2.508-1.506 4.648-1.138a56.88 56.88 0 0 1 3.015.761c1.874.596 2.89 2.364 3.696 4.338.88 2.16-.36 3.806.424 4.738.91 1.08.654 3.406.36 4.667-.71 3.05-5.137 5.37-8.213 5.388l-2.035-.183zm1.914 4.167v-15.702 15.702z"/><path id="D" d="M322.412 169.77l-3.547-2.682 3.547 2.682zm0-2.522l3.47-2.623-3.47 2.623zm0-2l-1.962-1.483 1.962 1.483zm-1.463 6.93c-2.088-.42-3.748-1.8-4.16-3.7-1.01-3.746-1-5.773-.245-7.315l.392-.733c.343-.62.648-1.193.685-1.978.067-1.424 1.043-2.548 1.88-3.296 1.025-.917 1.918-1.38 3.554-1.043.31.063 2.003.582 2.306.697 1.433.546 2.21 2.167 2.826 3.977.673 1.98-.276 3.49.324 4.344.695.99.5 3.122.276 4.278-.542 2.797-3.928 4.923-6.28 4.938l-1.556-.167zm1.463 3.82v-14.394 14.394z"/><path id="E" d="M338.412 165.522l-3.547-4.51 3.547 4.51zm0-4.24l3.47-4.41-3.47 4.41zm0-3.364l-1.962-2.494 1.962 2.494zm-1.463 11.653c-2.088-.705-3.748-3.03-4.16-6.225-1.01-6.3-1-9.71-.245-12.302.128-.438.263-.843.392-1.234.343-1.043.648-2.006.685-3.327.067-2.395 1.043-4.285 1.88-5.544 1.025-1.542 1.918-2.322 3.554-1.754.31.107 2.003.98 2.306 1.172 1.433.918 2.21 3.645 2.826 6.688.673 3.33-.276 5.867.324 7.305.695 1.664.5 5.25.276 7.195-.542 4.703-3.928 8.28-6.28 8.306l-1.556-.28zm1.463 6.425v-24.208 24.208z"/><path id="F" d="M481.914 114.08v3.808c0 .282-.286.515-.636.515h-4.114c-.347 0-.633-.233-.633-.515v-3.808h5.383z"/><path id="G" d="M480.837 114.08v3.808c0 .282-.23.515-.51.515h-3.29c-.278 0-.506-.233-.506-.515v-3.808h4.306z"/><path id="H" d="M496.986 150.827v3.808c0 .283-.286.516-.636.516h-4.114c-.347 0-.633-.233-.633-.516v-3.808h5.383z"/><path id="I" d="M362.293 179.387c0-2.894-2.34-5.24-5.226-5.24s-5.227 2.348-5.227 5.24a5.24 5.24 0 0 0 5.227 5.241c2.885 0 5.226-2.348 5.226-5.24z"/><path id="J" d="M136.98 161.308c0 .868-.723 1.574-1.616 1.574s-1.614-.706-1.614-1.574.723-1.573 1.614-1.573 1.616.704 1.616 1.573"/><path id="K" d="M141.287 161.308c0 .868-.722 1.574-1.615 1.574s-1.615-.706-1.615-1.574.724-1.573 1.615-1.573 1.615.704 1.615 1.573"/><path id="L" d="M157.435 161.308c0 .868-.723 1.574-1.615 1.574s-1.614-.706-1.614-1.574.723-1.573 1.614-1.573 1.615.704 1.615 1.573"/></defs><g transform="translate(0 1)" fill="none"><path d="M595 177H399.956m-56.66 0H91" class="B C D F"/><g class="G"><use xlink:href="#C" class="E H"/><use xlink:href="#C" class="B C"/><use xlink:href="#D" class="E H"/><use xlink:href="#D" class="B C"/><use xlink:href="#E" class="E H"/><use xlink:href="#E" class="B C"/></g><path d="M279.583 122.762V120h-28.057v2.762h28.057zm-16.852 37.243h5.646v-7.49h-5.646v7.49zm-9.976 0h5.646v-7.49h-5.646v7.49zm9.976-11.043h5.646v-7.49h-5.646v7.49zm-9.976 0h5.646v-7.49h-5.646v7.49zm19.953 11.043h5.646v-7.49h-5.646v7.49zm0-11.043h5.646v-7.49h-5.646v7.49zm-13.712 27.67V164.56h6.56v12.073h-6.56zm6.967 0V164.56h6.56v12.073h-6.56zm31.722-5.584h5.646v-7.49h-5.646v7.49zm-9.976 0h5.646v-7.49h-5.646v7.49zm9.976-11.043h5.646v-7.49h-5.646v7.49zm-9.976 0h5.646v-7.49h-5.646v7.49zm9.976-11.043h5.646v-7.49h-5.646v7.49zm-9.976 0h5.646v-7.49h-5.646v7.49zm-49.95 22.086h5.646v-7.49h-5.646v7.49zm-9.976 0h5.646v-7.49h-5.646v7.49zm9.976-11.043h5.646v-7.49h-5.646v7.49zm-9.976 0h5.646v-7.49h-5.646v7.49zm9.976-11.043h5.646v-7.49h-5.646v7.49zm-9.976 0h5.646v-7.49h-5.646v7.49zm20.402 27.67v-53.87h34.746v53.87h-34.746zm13.504-44.415zm7.738-5.332v10.665-10.665zm-7.738 0v10.665-10.665zM282.918 176v-38.835V176z" class="B C F"/><g class="F"><g class="B C"><path d="M496.986 138.94c0 10.147-8.194 18.373-18.302 18.373s-18.3-8.226-18.3-18.373 8.194-18.374 18.3-18.374 18.302 8.225 18.302 18.374z"/><g class="D"><path d="M456.077 138.938h45.215"/><path d="M478.684 117.323v42.15"/><path d="M495.91 122.727l-32.9 31.998"/><path d="M495.91 156.23l-34.45-33.504"/></g></g><use xlink:href="#F" class="E"/><g class="B C"><path d="M475.455 113h5.383" class="D"/><use xlink:href="#G"/><path d="M475.455 155.69h5.383" class="D"/></g><use xlink:href="#F" y="43.232" class="E"/><g class="B C"><use xlink:href="#G" y="43.232"/><path d="M491.603 119.485h5.383" class="D"/></g><use xlink:href="#F" x="15.072" y="7.566" class="E"/><g class="B C"><use xlink:href="#F" x="15.072" y="7.566"/><path d="M461.46 119.485h5.383" class="D"/></g><use xlink:href="#F" x="-15.072" y="7.566" class="E"/><g class="B C"><use xlink:href="#F" x="-15.072" y="7.566"/><path d="M491.603 148.666h5.383" class="D"/></g><use xlink:href="#H" class="E"/><g class="B C"><use xlink:href="#H"/><path d="M461.46 148.666h5.383" class="D"/></g><use xlink:href="#H" x="-30.144" class="E"/><g class="B C"><use xlink:href="#H" x="-30.144"/><path d="M455 134.616h5.383m1.077-15.13h5.383m24.76-.001h5.383" class="D"/></g><use xlink:href="#H" x="-36.603" y="-15.131" class="E"/><g class="B C"><use xlink:href="#H" x="-36.603" y="-15.131"/><path d="M496.986 133.535h5.383" class="D"/></g><use xlink:href="#H" x="5.382" y="-15.131" class="E"/><use xlink:href="#H" x="5.382" y="-15.131" class="B C"/><path d="M456.077 171.362h43.062m-33.373-6.485h25.837" class="I"/><path d="M467.92 164.337h22.608" class="B C D"/><path d="M468.995 154.07l-6.46 17.292" class="I"/><path d="M470.072 155.15l-7.536 21.615" class="B C D"/><path d="M487.297 154.07l6.46 17.292" class="I"/><path d="M487.297 155.15l7.536 21.615" class="B C D"/></g><g transform="matrix(.994522 -.104528 .104528 .994522 288.122223 110.251381)" opacity=".7"><g transform="translate(0 8.612)"><mask id="M" fill="#fff"><use xlink:href="#A"/></mask><path d="M.78 7.78c-.025-.2.004-.394.088-.58l2.66-5.43-2.764.423a.59.59 0 0 1-.497-.148c-.147-.127-.233-.297-.26-.5-.024-.197.02-.377.132-.54S.398.737.58.71L4.606.093a.69.69 0 0 1 .578.183c.177.154.28.363.314.625a1.11 1.11 0 0 1-.106.643L2.764 6.933l2.853-.437c.177-.027.34.02.486.144a.72.72 0 0 1 .256.481c.026.213-.016.402-.126.57s-.254.263-.432.29l-4.073.624c-.22.034-.423-.03-.613-.187s-.3-.37-.334-.637" mask="url(#M)" fill="#fff"/></g><path d="M10.65 9.946a.77.77 0 0 1 .102-.36l1.946-3.116-1.533-.11c-.102-.007-.187-.062-.254-.164s-.098-.223-.092-.363a.52.52 0 0 1 .122-.328c.076-.09.164-.13.265-.123l2.233.16c.116.008.214.074.295.197s.118.27.11.444c-.006.15-.045.283-.118.397l-1.925 3.094 1.582.112c.098.007.18.06.25.16s.1.214.093.344c-.006.14-.046.256-.122.347s-.162.134-.26.127l-2.26-.16c-.122-.01-.226-.077-.314-.204s-.128-.28-.12-.455" fill="#fff"/><g transform="translate(19.17)"><mask id="N" fill="#fff"><use xlink:href="#B"/></mask><path d="M.905 2.946C.878 2.88.873 2.813.89 2.743L1.493.686.42 1.072a.28.28 0 0 1-.212-.006C.14 1.036.09.987.062.918.035.854.038.8.07.725A.26.26 0 0 1 .221.59l1.56-.563c.08-.03.163-.026.247.01s.144.097.18.182c.03.074.035.15.012.225l-.593 2.04 1.106-.4a.28.28 0 0 1 .207.006c.07.028.117.075.144.14.03.07.028.136-.002.202a.25.25 0 0 1-.148.136l-1.58.57c-.085.03-.172.028-.262-.008a.33.33 0 0 1-.188-.184" mask="url(#N)" fill="#fff"/></g></g><g class="G"><path d="M452.758 38.715h2.688c.237-2.402 2.2-4.276 4.59-4.276a4.6 4.6 0 0 1 .488.026C461.7 31.83 464.263 30 467.25 30c2.226 0 4.22 1.017 5.578 2.625.98-.746 2.188-1.187 3.497-1.187 3.258 0 5.9 2.73 5.9 6.095 0 .405-.04.8-.112 1.183h1.453c2.627 0 4.758 2.2 4.758 4.915s-2.13 4.915-4.758 4.915h-30.81c-2.628 0-4.758-2.2-4.758-4.915s2.13-4.915 4.758-4.915" class="E"/><path d="M452.758 38.715h2.688c.237-2.402 2.2-4.276 4.59-4.276a4.6 4.6 0 0 1 .488.026C461.7 31.83 464.263 30 467.25 30c2.226 0 4.22 1.017 5.578 2.625.98-.746 2.188-1.187 3.497-1.187 3.258 0 5.9 2.73 5.9 6.095 0 .405-.04.8-.112 1.183h1.453c2.627 0 4.758 2.2 4.758 4.915s-2.13 4.915-4.758 4.915h-30.81c-2.628 0-4.758-2.2-4.758-4.915s2.13-4.915 4.758-4.915z" class="B C"/><path d="M163.02 5.565h1.706c.15-1.534 1.397-2.73 2.912-2.73a2.82 2.82 0 0 1 .31.017C168.688 1.17 170.32 0 172.218 0c1.413 0 2.68.65 3.54 1.676.62-.476 1.388-.757 2.22-.757 2.068 0 3.744 1.742 3.744 3.892 0 .258-.025.51-.07.755h.922c1.667 0 3.02 1.405 3.02 3.14s-1.352 3.14-3.02 3.14H163.02c-1.668 0-3.02-1.405-3.02-3.14s1.352-3.14 3.02-3.14" class="E"/><path d="M163.02 5.565h1.706c.15-1.534 1.397-2.73 2.912-2.73a2.82 2.82 0 0 1 .31.017C168.688 1.17 170.32 0 172.218 0c1.413 0 2.68.65 3.54 1.676.62-.476 1.388-.757 2.22-.757 2.068 0 3.744 1.742 3.744 3.892 0 .258-.025.51-.07.755h.922c1.667 0 3.02 1.405 3.02 3.14s-1.352 3.14-3.02 3.14H163.02c-1.668 0-3.02-1.405-3.02-3.14s1.352-3.14 3.02-3.14z" class="B C"/></g><g class="B"><path d="M41 165h45v3.05c-18.177-.202-29.894 2.096-35.15 6.895" opacity=".5"/><path d="M130 177v-12H86v3.33c18.137.546 29.776 3.437 34.917 8.67M132 177v-12h45v3.33c-19.208.546-31.44 3.436-36.7 8.67m81.7-12h-44v3.436c18.047.306 29.64 3.16 34.782 8.564" opacity=".5"/><g class="G"><path d="M410 176c0-9.39 8.507-16 19-16s19 6.628 19 16.017"/><path d="M410.805 176c-3.132-4.507-5.156-10.517-2.737-15.977 2.004-4.522 6.306-5.345 10.505-4.52 4.054.795 7.486 4.85 10.86 7.4 2.374 1.797 4.97 2.952 7.784 3.456 1.665.297 3.45.497 5.152.305 6.7-.755 10.004-8.703 8.097-15.332-2.016-7.008-8.17-4.712-9.2 1.207-.782 4.5-.222 9.55.736 13.97.7 3.27 1.704 6.658 3.37 9.493M406 176h48"/><path d="M409 175.645V158m5 18v-21m4 21v-21m5 21v-18.5m4 18.5v-15m4 15v-12m5 12.017V166m4 10v-9m4 9v-28m5 28v-28"/></g></g><g class="F"><g class="B"><g class="C"><path d="M398.776 173.322h.276c.037-.957.016-2.068-.183-2.933h-.276c-.12-.524-.306-.957-.584-1.2-1.29-1.176-11.147-2.662-12.81-3.856-1.406-1.01-6.862-8.57-11.393-8.977-4.725-.425-19.65-.665-24.006.552-2.56.715-3.048 8.41-3.98 16.965a2.03 2.03 0 0 0-1.82 2.021v1.45c0 1.124.9 2.033 2.034 2.033h3.007l.276.022c0-2.172.647-4.13 2.115-5.505a7.51 7.51 0 0 1 5.149-2.032 7.54 7.54 0 0 1 7.541 7.538h15.42a7.54 7.54 0 0 1 7.54-7.538c2.674 0 5.023 1.39 6.36 3.488l5.162.063s.127-.927.17-2.08z" class="E"/><path d="M398.03 175.645h-4.562c.714 1.086.854 2.368.854 3.742h3.708c1.1 0 1.97-.836 1.97-1.87s-.882-1.87-1.97-1.87z"/></g><path d="M358.933 178.452c0-1.55-1.254-2.807-2.8-2.807s-2.8 1.257-2.8 2.807 1.255 2.807 2.8 2.807 2.8-1.258 2.8-2.807z"/><path d="M356.133 179.855c0 .258.21.468.467.468s.467-.21.467-.468-.21-.468-.467-.468-.467.21-.467.468z" class="C"/></g><path d="M361.733 179.387a5.61 5.61 0 0 0-5.6-5.613 5.61 5.61 0 1 0 0 11.226 5.61 5.61 0 0 0 5.6-5.613" class="E"/><g class="B"><use xlink:href="#I"/><g class="C"><path d="M394.32 179.387h3.708c1.1 0 1.97-.836 1.97-1.87s-.882-1.87-1.97-1.87h-4.562c.714 1.086.854 2.368.854 3.742zm-30.72-9.823c0 .26.276.468.617.468h2.5c.34 0 .617-.2.617-.468s-.276-.467-.617-.467h-2.5c-.34 0-.617.208-.617.467zm-15.18 9.8h-2.636c-.985 0-1.783-.92-1.783-2.06v-1.47c0-1.14.798-2.06 1.783-2.06v.01l4.75-.001c-1.3 1.396-1.873 3.4-1.873 5.603l-.242-.022zm48.68-9.332l1.728-.001c.24 1.104.265 2.52.22 3.74l-1.95.001c-.976 0-1.766-.837-1.767-1.87s.8-1.87 1.767-1.87zm-36.3-3.732h-12.133l.67-4.364c.514-2.507 1.026-3.177 1.146-3.305 1.3-.36 6.934-.618 10.316-.75v8.42zm21.473-.935l.927.936h-.933"/><path d="M378.546 166.3h-15.88v-8.372l3.116-.048c4.587 0 5.245.178 7.08.354 2.198.212 5.548 3.778 7.538 6.07m2.8 1.916c0 2.15-3.733 1.945-3.733 1.945v-3.707s3.733-.406 3.733 1.762z"/></g></g><path d="M393.467 179.387c0-3.1-2.716-5.613-6.066-5.613s-6.067 2.514-6.067 5.613S384.052 185 387.4 185s6.066-2.515 6.066-5.613" class="E"/><g class="B"><use xlink:href="#I" x="29.867"/><path d="M390.293 179.387c0-1.86-1.505-3.37-3.36-3.37s-3.36 1.5-3.36 3.37a3.37 3.37 0 0 0 3.36 3.37 3.37 3.37 0 0 0 3.36-3.37zm-33.226 3.37c1.855 0 3.36-1.508 3.36-3.37s-1.505-3.37-3.36-3.37-3.36 1.508-3.36 3.37 1.505 3.37 3.36 3.37z"/></g><g class="B"><use xlink:href="#J"/><use xlink:href="#K"/><use xlink:href="#L"/><use xlink:href="#L" x="5.383"/><use xlink:href="#J" x="-36.602"/><use xlink:href="#K" x="-36.603"/><use xlink:href="#L" x="-35.525"/><use xlink:href="#L" x="-31.22"/><path d="M134.064 159.734c-1.36 0-2.466-1.3-2.466-2.903v-9.93c0-1.6 1.105-2.9 2.466-2.9h28.366c1.45 0 2.854.708 3.854 1.94l2.598 3.207c.948 1.17 1.47 2.703 1.47 4.322 0 3.454-2.39 6.265-5.325 6.265h-30.965z"/><path d="M97.148 144h31.4c1.088 0 1.974 1.06 1.974 2.365v11.004c0 1.304-.885 2.365-1.974 2.365h-31.4" class="C D"/><path d="M168.035 151.343l.165-.378-.195-.265-2.676-3c-.914-1.023-2.18-1.603-3.505-1.603h-3.314c0 2.896 2.198 5.245 4.908 5.245h4.616z"/><path d="M137.092 154.76h11.193m10.338 0h11.193m-88.63 1.317h43.692m-35.267-6.307h13.995" class="C D"/><rect x="136.279" y="147.512" width="4.633" height="4.514" rx=".5"/><rect x="143.815" y="147.512" width="4.633" height="4.514" rx=".5"/><rect x="151.351" y="147.512" width="4.633" height="8.71" rx=".5"/><rect x="103.983" y="147.512" width="4.633" height="4.514" rx=".5"/><rect x="111.519" y="147.512" width="4.633" height="4.514" rx=".5"/><rect x="119.054" y="147.512" width="4.633" height="4.514" rx=".5"/></g></g><path d="M65.073 72.93h2.867c.253-2.46 2.347-4.38 4.893-4.38a4.99 4.99 0 0 1 .52.027C74.6 65.876 77.342 64 80.53 64c2.374 0 4.5 1.042 5.948 2.69 1.043-.764 2.333-1.216 3.73-1.216 3.474 0 6.29 2.795 6.29 6.244a6.22 6.22 0 0 1-.119 1.211h1.55c2.802 0 5.073 2.255 5.073 5.036S100.728 83 97.927 83H65.073C62.27 83 60 80.745 60 77.964s2.27-5.036 5.073-5.036" stroke="#3383DB"/><g class="B"><path d="M167 162h54m-7 1v1m-13-1v1m-11-1v1m-13-1v1" opacity=".5" stroke-linecap="square"/><g class="C"><path d="M135.243 35.654a4.67 4.67 0 0 0-.779 2.028l.78-2.028zm8.788 1.22c-.2-.622-.527-1.2-.95-1.674l.95 1.674zm-4.72-1.744c-1.79 0-3.24 1.4-3.24 3.15s1.45 3.15 3.24 3.15 3.24-1.41 3.24-3.15-1.45-3.15-3.24-3.15zm-9.9-.252c-.218 1.17-.614 2.232-1.193 3.178l1.193-3.178zm-3.012-7.53c.83.688 1.527 1.422 2.054 2.215l-2.054-2.215zm-18.63 8.308a4.67 4.67 0 0 1 .779 2.028l-.78-2.028zm-8.79 1.22a4.75 4.75 0 0 1 .952-1.674l-.952 1.674zm17.3-4.125l-.22 1.346c2.985.795 7.915.795 10.9 0l-.22-1.346H116.27zM121.5 17l-.78.52-.677 8.36a8.19 8.19 0 0 0-3.432 1.466l-10.206.684.536 1.208 7.617.323a7.67 7.67 0 0 0-1.154 3.708l-31.078.394c-.29.02-.422.264-.25.485l1.04 1.327 15.88 1.344c-.144.45-.222.927-.222 1.422 0 2.628 2.19 4.758 4.894 4.758s4.894-2.13 4.894-4.758a4.65 4.65 0 0 0-.05-.686l6.268.486c3.198 4.595 10.24 4.595 13.437 0l6.268-.486c-.033.224-.05.452-.05.686 0 2.628 2.2 4.758 4.894 4.758s4.895-2.13 4.895-4.758a4.66 4.66 0 0 0-.221-1.422l15.88-1.344 1.04-1.327c.173-.222.04-.466-.248-.485l-31.078-.394a7.68 7.68 0 0 0-1.154-3.708l7.617-.323.536-1.208-10.207-.684a8.18 8.18 0 0 0-3.431-1.466l-.677-8.36-.78-.52zm-17.8 18.13c1.79 0 3.24 1.4 3.24 3.15s-1.45 3.15-3.24 3.15-3.24-1.41-3.24-3.15 1.45-3.15 3.24-3.15zm9.9-.252c.218 1.17.614 2.232 1.193 3.178l-1.193-3.178zm3.01-7.53c-.83.688-1.526 1.422-2.053 2.215l2.053-2.215zm3.432-1.357a5.33 5.33 0 0 1 2.914 0h-2.914z" stroke-width=".5" opacity=".7"/><path d="M.5 178l88.5-1" class="D F"/></g></g><path d="M222 177v-41h26m61 41v-41h-26" stroke="#99C1ED"/></g></svg>